HIERARCHY
ROOT Hips
{
	OFFSET -3.958830 18.904000 13.208200
	CHANNELS 6 Xposition Yposition Zposition Zrotation Yrotation Xrotation 
	JOINT LHipJoint
	{
		OFFSET 0.000000 0.000000 0.000000
		CHANNELS 3 Zrotation Yrotation Xrotation
		JOINT LeftUpLeg
		{
			OFFSET 1.800000 -1.400000 0.085000
			CHANNELS 3 Zrotation Yrotation Xrotation
			JOINT LeftLeg
			{
				OFFSET 2.215000 -6.000000 0.000000
				CHANNELS 3 Zrotation Yrotation Xrotation
				JOINT LeftFoot
				{
					OFFSET 2.500000 -6.900000 0.000000
					CHANNELS 3 Zrotation Yrotation Xrotation
					JOINT LeftToeBase
					{
						OFFSET 0.200000 -0.500000 1.950000
						CHANNELS 3 Zrotation Yrotation Xrotation
						End Site
						{
							OFFSET 0.000000 0.000000 0.000000
						}
					}
				}
			}
		}
	}
	JOINT RHipJoint
	{
		OFFSET 0.000000 0.000000 0.000000
		CHANNELS 3 Zrotation Yrotation Xrotation
		JOINT RightUpLeg
		{
			OFFSET -1.800000 -1.400000 0.085000
			CHANNELS 3 Zrotation Yrotation Xrotation
			JOINT RightLeg
			{
				OFFSET -2.215000 -6.000000 0.000000
				CHANNELS 3 Zrotation Yrotation Xrotation
				JOINT RightFoot
				{
					OFFSET -2.500000 -6.900000 0.000000
					CHANNELS 3 Zrotation Yrotation Xrotation
					JOINT RightToeBase
					{
						OFFSET -0.200000 -0.500000 1.950000
						CHANNELS 3 Zrotation Yrotation Xrotation
						End Site
						{
							OFFSET 0.000000 0.000000 0.000000
						}
					}
				}
			}
		}
	}
	JOINT LowerBack
	{
		OFFSET 0.000000 0.000000 0.000000
		CHANNELS 3 Zrotation Yrotation Xrotation
		JOINT Spine
		{
			OFFSET -0.087000 1.940000 -0.288900
			CHANNELS 3 Zrotation Yrotation Xrotation
			JOINT Spine1
			{
				OFFSET 0.000000 1.950000 0.060000
				CHANNELS 3 Zrotation Yrotation Xrotation
				JOINT Neck
				{
					OFFSET 0.000000 0.000000 0.000000
					CHANNELS 3 Zrotation Yrotation Xrotation
					JOINT Neck1
					{
						OFFSET 0.000000 1.600000 0.340000
						CHANNELS 3 Zrotation Yrotation Xrotation
						JOINT Head
						{
							OFFSET 0.000000 1.667000 -0.240000
							CHANNELS 3 Zrotation Yrotation Xrotation
							End Site
							{
								OFFSET 0.000000 0.000000 0.000000
							}
						}
					}
				}
				JOINT LeftShoulder
				{
					OFFSET 0.000000 0.000000 0.000000
					CHANNELS 3 Zrotation Yrotation Xrotation
					JOINT LeftArm
					{
						OFFSET 2.700000 1.550000 -0.730000
						CHANNELS 3 Zrotation Yrotation Xrotation
						JOINT LeftForeArm
						{
							OFFSET 5.450000 0.000000 0.000000
							CHANNELS 3 Zrotation Yrotation Xrotation
							JOINT LeftHand
							{
								OFFSET 3.450000 0.000000 0.000000
								CHANNELS 3 Zrotation Yrotation Xrotation
								JOINT LeftHandIndex1
								{
									OFFSET 0.750000 0.000000 0.000000
									CHANNELS 3 Zrotation Yrotation Xrotation
									End Site
									{
										OFFSET 0.000000 0.000000 0.000000
									}
								}
							}
						}
					}
				}
				JOINT RightShoulder
				{
					OFFSET 0.000000 0.000000 0.000000
					CHANNELS 3 Zrotation Yrotation Xrotation
					JOINT RightArm
					{
						OFFSET -2.700000 1.550000 -0.730000
						CHANNELS 3 Zrotation Yrotation Xrotation
						JOINT RightForeArm
						{
							OFFSET -5.450000 0.000000 0.000000
							CHANNELS 3 Zrotation Yrotation Xrotation
							JOINT RightHand
							{
								OFFSET -3.450000 0.000000 0.000000
								CHANNELS 3 Zrotation Yrotation Xrotation
								JOINT RightHandIndex1
								{
									OFFSET -0.750000 0.000000 0.000000
									CHANNELS 3 Zrotation Yrotation Xrotation
									End Site
									{
										OFFSET 0.000000 0.000000 0.000000
									}
								}
							}
						}
					}
				}
			}
		}
	}
}
MOTION
Frames: 13
Frame Time: 0.016667
0.268240 17.576340 -3.354100 -1.120421 -0.442419 4.676679 -15.246154 12.215650 4.378621 3.109324 -6.586701 -35.009602 -9.561879 8.999939 29.932485 -0.283347 5.640856 2.528272 0.269420 -0.131960 0.401890 18.190736 -11.318956 2.312542 -6.238035 -0.736807 2.187754 6.248016 -8.383527 24.840160 -0.622954 -5.554014 2.694561 -0.060270 0.128850 0.114320 -3.330588 -0.417564 -7.891412 4.119316 5.005187 12.921038 0.461934 5.715935 5.582121 2.347822 2.994200 -9.676653 2.910922 -3.409288 51.459952 -4.585480 0.662250 -0.127650 -20.194012 -5.316594 4.105135 -38.361543 8.119825 -8.382251 -57.635271 -24.851477 8.048504 -3.643884 3.088766 0.542480 0.098680 -0.022760 0.080480 16.241818 6.057745 4.868543 49.298890 -0.525102 -9.937511 40.342163 29.668934 5.925355 2.206548 -1.454039 -0.239950 0.184250 -0.019980 -0.296480 
0.259480 17.583580 -3.374550 -1.108733 -0.347918 4.518879 -15.241688 12.175436 4.426658 2.897297 -6.749410 -35.586703 -9.136442 8.916134 30.440718 -0.279626 5.634163 2.518668 0.295610 -0.099330 0.416060 18.197396 -11.305783 2.338341 -6.198882 -0.791878 2.539721 6.530902 -8.420149 24.431235 -0.645697 -5.545511 2.690607 -0.047840 0.104830 0.112240 -3.350887 -0.388854 -7.949321 4.316833 5.141289 13.406529 0.303439 5.954783 5.498648 2.323177 2.865682 -9.824107 2.629315 -3.336557 52.358623 -4.126610 0.449130 -0.615490 -20.305537 -5.603374 4.189071 -38.216192 8.108021 -8.471160 -57.776248 -25.444723 8.350352 -3.615473 3.096963 0.556410 0.074720 -0.001040 0.084910 16.361416 6.556401 4.960836 49.054946 -0.236159 -9.751990 39.926266 28.942546 5.641783 2.215888 -1.446608 -0.227350 0.181630 -0.034740 -0.295280 
0.241430 17.596460 -3.413610 -1.022895 -0.134264 4.375713 -15.268364 12.105358 4.519713 2.252417 -7.104982 -36.787973 -8.120368 8.622335 31.166650 -0.297827 5.585699 2.528310 0.314840 -0.083110 0.436560 18.181131 -11.258829 2.372270 -6.050810 -0.871075 3.016448 6.916711 -8.405418 23.570908 -0.659822 -5.506659 2.699197 -0.038470 0.086490 0.108770 -3.296499 -0.380906 -8.027525 4.093192 5.588623 14.160864 0.657990 6.500923 5.232851 2.327469 2.822924 -9.978008 2.506801 -3.628703 53.364318 -4.058780 0.055600 -1.003160 -20.579824 -5.963074 4.221488 -38.459921 7.863561 -8.544416 -57.426701 -26.186190 8.642208 -3.599526 3.084324 0.576050 0.055560 0.016320 0.085620 16.643489 7.302263 5.075129 48.158753 0.269070 -9.276532 39.115852 27.501911 5.135383 2.223829 -1.424305 -0.226840 0.188730 -0.043950 -0.300820 
0.223520 17.604050 -3.457890 -0.798436 0.390374 4.187470 -15.287991 12.051741 4.599046 1.152097 -7.487876 -37.703895 -7.009478 8.055122 30.982115 -0.352852 5.350070 2.609862 0.319620 -0.081810 0.437870 18.165302 -11.228498 2.405406 -6.007793 -0.892951 3.382267 7.381680 -8.478908 23.081719 -0.667359 -5.507335 2.699520 -0.031460 0.083290 0.094590 -3.258048 -0.375729 -8.097770 3.893152 5.982762 15.013339 0.835815 7.022243 4.955891 2.290289 2.759833 -10.122700 2.374497 -3.784782 54.408195 -3.438770 -0.509430 -1.183360 -20.941271 -6.296411 4.240036 -38.577330 7.705891 -8.656295 -57.113884 -27.327264 9.140140 -3.589303 3.066332 0.595660 0.041230 0.017770 0.083650 17.073094 8.008234 5.198558 47.075060 0.660449 -8.869062 38.654580 26.486749 4.835662 2.223261 -1.399013 -0.239390 0.205700 -0.039510 -0.306360 
0.206570 17.600580 -3.498050 -0.597320 1.473334 4.029263 -15.295734 12.013744 4.626807 -0.306340 -7.771335 -38.133415 -5.783996 7.157139 29.493939 -0.424581 4.832068 2.790494 0.351610 -0.034240 0.448030 18.161910 -11.211437 2.448552 -5.756225 -0.979840 3.722650 7.802404 -8.543526 22.667228 -0.697333 -5.506131 2.694710 -0.010750 0.065470 0.091600 -3.261777 -0.362289 -8.124400 3.893383 6.206644 15.588970 0.966365 7.314971 5.079319 2.247187 2.771445 -10.193877 2.358503 -4.033458 55.437647 -2.632310 -1.148440 -2.014260 -20.743957 -6.461699 4.199802 -39.044735 7.079296 -8.716804 -56.779105 -27.934135 9.379375 -3.565330 3.063210 0.608000 0.016950 0.043820 0.094120 16.964378 8.325460 5.227525 46.636653 1.131456 -8.625739 38.129011 25.980108 4.638868 2.229630 -1.385553 -0.224540 0.215030 -0.056160 -0.296690 
0.190730 17.587490 -3.532460 -0.328371 2.727179 3.925811 -15.307030 11.998420 4.589788 -1.911528 -7.820709 -37.887655 -4.812075 6.154925 26.555195 -0.549988 4.140304 3.034545 0.384950 0.003420 0.465080 18.153053 -11.209600 2.499503 -5.437233 -1.084083 4.079319 8.137357 -8.552161 22.084601 -0.721219 -5.500222 2.687799 0.015040 0.044770 0.093880 -3.251991 -0.331396 -8.102663 3.639193 6.510332 15.916251 1.211363 7.605885 5.383518 2.265850 3.165691 -10.158275 3.214224 -4.695464 55.841310 -2.019380 -1.674240 -3.114900 -20.660313 -6.667342 4.186325 -38.824963 6.640762 -8.688280 -57.372294 -29.008695 10.094973 -3.548712 3.073893 0.630290 -0.000750 0.061280 0.094660 16.886125 8.381594 5.108705 46.057557 1.784684 -8.236035 37.865126 25.415744 4.505902 2.220528 -1.378751 -0.220350 0.218100 -0.062910 -0.304060 
0.176610 17.560550 -3.556500 -0.132084 4.494823 4.002235 -15.308194 11.974073 4.527176 -3.608271 -7.765675 -37.189901 -4.055207 5.106789 22.382337 -0.672092 3.334486 3.329663 0.417050 0.043760 0.490740 18.161207 -11.203603 2.557588 -4.723691 -1.287464 4.279679 8.413507 -8.525849 21.504557 -0.745141 -5.471470 2.685835 0.038880 0.018660 0.093790 -3.287147 -0.286240 -8.065483 3.619445 6.547622 15.808382 1.314257 7.578356 5.921875 2.306624 3.612625 -10.136115 4.206129 -5.289744 55.941499 -1.624070 -1.828420 -4.085720 -20.171469 -6.835210 4.231946 -38.661587 6.028099 -8.612425 -58.267948 -30.522377 11.193769 -3.529555 3.093489 0.642020 -0.018830 0.081830 0.093840 16.361032 8.155459 4.973994 46.190000 2.380054 -7.999855 37.692143 25.446175 4.521889 2.222344 -1.380476 -0.211530 0.215970 -0.078510 -0.309560 
0.170030 17.527940 -3.580710 0.002274 6.694504 4.017457 -15.321462 11.949954 4.496866 -5.372154 -7.759055 -36.398611 -3.259742 4.175055 18.141463 -0.799471 2.654383 3.590298 0.425500 0.054150 0.504490 18.161995 -11.155332 2.624098 -3.796860 -1.589118 4.663735 8.742552 -8.511101 20.720030 -0.764121 -5.436188 2.700276 0.053880 0.004500 0.081080 -3.301410 -0.321443 -8.077227 3.752495 6.304305 15.939249 1.380544 7.325625 6.267291 2.444145 4.052517 -10.294505 5.168281 -6.015552 56.430312 -1.723700 -2.002350 -4.866060 -19.908883 -7.294765 4.330584 -38.317510 5.526178 -8.450875 -59.167932 -31.446031 11.984738 -3.524401 3.074534 0.667590 -0.029210 0.092070 0.086980 15.875815 8.191436 5.071275 45.909668 2.552083 -7.997926 38.070788 26.268872 4.823396 2.206022 -1.363782 -0.227640 0.235800 -0.075890 -0.325590 
0.157400 17.481030 -3.599440 0.209756 8.648676 4.289769 -15.355736 11.893804 4.502667 -6.838600 -7.788566 -35.985989 -2.819722 3.512932 14.142891 -0.879197 2.159031 3.786158 0.439080 0.063620 0.524530 18.154203 -11.065566 2.679569 -2.676321 -1.934535 5.037440 8.779911 -8.300506 19.497121 -0.773723 -5.347828 2.727251 0.060950 -0.007890 0.082950 -3.262366 -0.386144 -8.097926 3.478705 6.204189 15.816341 1.770610 7.128996 6.502265 2.499683 4.406803 -10.428134 5.895317 -6.607694 56.451833 -1.946250 -2.108930 -5.198090 -19.651109 -7.775918 4.485099 -37.827003 5.220011 -8.260757 -60.461127 -31.711579 12.519941 -3.519088 3.081965 0.678650 -0.034790 0.100360 0.084120 15.592257 8.375952 5.138944 45.376630 2.734403 -7.772793 38.562925 25.951128 4.832518 2.204906 -1.366824 -0.228400 0.235110 -0.082530 -0.334460 
0.145140 17.428890 -3.615610 0.560130 10.524745 4.406655 -15.393953 11.833314 4.548908 -8.167072 -7.957403 -35.715105 -2.603005 3.119059 11.374845 -0.924696 1.864168 3.890984 0.448890 0.074080 0.541650 18.138099 -10.973531 2.731013 -1.718543 -2.245829 5.564302 8.754118 -8.124184 18.478436 -0.791186 -5.276598 2.739559 0.064540 -0.038410 0.078040 -3.204267 -0.458931 -8.159457 3.082650 6.180008 16.062638 1.970718 7.070836 6.468415 2.535752 4.777442 -10.860877 6.698152 -7.230990 57.250650 -1.749810 -2.317330 -5.601730 -19.526033 -8.757295 4.792703 -36.939103 4.967539 -8.034456 -61.773491 -31.381012 12.702321 -3.499846 3.085873 0.698640 -0.057220 0.118640 0.070990 15.446809 9.124463 5.514459 44.889337 2.615668 -7.745912 38.905240 25.854638 4.824371 2.210336 -1.358620 -0.225160 0.228030 -0.085410 -0.345410 
0.137070 17.364170 -3.628460 0.757323 12.237446 4.427452 -15.403616 11.746378 4.627199 -9.305432 -8.269227 -35.919170 -2.288193 2.908214 10.255358 -0.943468 1.710746 3.943819 0.468250 0.098850 0.543140 18.149899 -10.901241 2.786822 -0.689132 -2.566944 6.128797 8.464037 -7.909625 17.632202 -0.816953 -5.215886 2.754601 0.074270 -0.056040 0.077440 -3.229384 -0.466413 -8.247429 3.318561 6.066774 16.518575 1.684825 7.053132 6.372664 2.505025 4.948773 -11.203102 7.017606 -7.591334 57.865819 -0.916020 -2.809250 -6.178860 -19.430164 -9.595543 4.974075 -35.848333 4.525005 -7.693300 -63.331620 -30.958737 12.950200 -3.473165 3.101819 0.718160 -0.079730 0.138620 0.079200 15.357130 9.788057 5.875655 44.380231 2.394053 -7.816335 39.676397 26.296982 5.036314 2.208168 -1.364516 -0.217860 0.226480 -0.095110 -0.342920 
0.130250 17.293160 -3.633940 0.838454 13.788679 4.439338 -15.414904 11.660262 4.708462 -10.057510 -8.604951 -36.385015 -2.324159 2.873922 10.079598 -0.937941 1.652273 3.964794 0.473860 0.108460 0.547450 18.157022 -10.833461 2.848311 0.438499 -2.896270 6.646900 8.170086 -7.728443 16.991644 -0.837768 -5.169265 2.769200 0.073180 -0.068910 0.072220 -3.242799 -0.459346 -8.336436 3.595356 6.072620 16.966520 1.542743 7.172714 6.082328 2.501018 5.250920 -11.646340 7.643460 -8.192149 58.326223 -0.555870 -3.164150 -6.201970 -19.516338 -10.580611 5.238994 -34.676414 4.241408 -7.400982 -64.595461 -31.089936 13.473322 -3.454682 3.108188 0.726220 -0.094250 0.152860 0.083670 15.385900 10.575067 6.330562 43.859878 1.953411 -7.820839 39.910610 26.021026 4.933023 2.215567 -1.360970 -0.212970 0.226120 -0.105930 -0.340230 
0.126280 17.220070 -3.629850 0.805143 15.085256 4.217551 -15.418003 11.603244 4.799533 -10.688549 -8.961205 -36.997341 -1.866419 2.855890 10.912070 -0.940384 1.637422 3.959903 0.481060 0.116250 0.554410 18.162448 -10.777430 2.916564 1.443097 -3.230097 7.323357 7.775493 -7.592504 16.609809 -0.864740 -5.146041 2.775202 0.071690 -0.091400 0.064630 -3.270850 -0.478284 -8.447972 4.205581 6.000215 17.729627 1.278105 7.331561 5.560073 2.500304 5.236473 -12.158353 7.559751 -8.585333 59.405426 -0.399800 -3.590230 -6.493780 -19.751402 -11.543452 5.497516 -33.710800 4.215443 -7.243404 -65.570573 -30.928820 13.651521 -3.431880 3.100342 0.748930 -0.116360 0.170840 0.080810 15.523207 11.635470 6.845838 43.562016 1.545398 -7.773457 39.851050 24.692499 4.456788 2.221207 -1.338976 -0.210960 0.227970 -0.109830 -0.345440 
